<svg xmlns="http://www.w3.org/2000/svg" width="600" height="600" viewBox="0 0 600 600">
  <defs>
    <linearGradient id="bottle1" x1="0" y1="0" x2="1" y2="1">
      <stop offset="0%" stop-color="#4ade80"/><stop offset="100%" stop-color="#16a34a"/>
    </linearGradient>
  </defs>
  <rect width="600" height="600" rx="24" fill="#0f1f17"/>
  <ellipse cx="300" cy="510" rx="120" ry="20" fill="#4ade80" opacity="0.08"/>
  <path d="M250 80 h100 v35 h15 v55 l28 38 v270 a55 55 0 0 1-55 55 h-76 a55 55 0 0 1-55-55 V208 l28-38 v-55 h15 z" fill="url(#bottle1)" opacity="0.9"/>
  <path d="M250 80 h100 v35 h15 v55 l28 38 v270 a55 55 0 0 1-55 55 h-76 a55 55 0 0 1-55-55 V208 l28-38 v-55 h15 z" fill="none" stroke="#86efac" stroke-width="3" opacity="0.6"/>
  <rect x="250" y="80" width="100" height="20" rx="4" fill="#15803d"/>
  <text x="300" y="340" font-family="Inter,sans-serif" font-size="42" font-weight="900" fill="#ffffff" text-anchor="middle" opacity="0.9">ECO</text>
  <text x="300" y="375" font-family="Inter,sans-serif" font-size="18" font-weight="600" fill="#ffffff" text-anchor="middle" opacity="0.5">TUPPERWARE</text>
</svg>
