<svg xmlns="http://www.w3.org/2000/svg" width="600" height="600" viewBox="0 0 600 600">
  <rect width="600" height="600" rx="24" fill="#0f1f17"/>
  <path d="M240 140 h120 v50 l30 45 v100 h-180 v-100 l30-45 z" fill="#16a34a" opacity="0.8"/>
  <rect x="240" y="140" width="120" height="20" rx="6" fill="#15803d"/>
  <circle cx="300" cy="280" r="30" fill="#4ade80" opacity="0.3"/>
  <path d="M300 260 v40 M280 280 h40" stroke="#4ade80" stroke-width="4" stroke-linecap="round"/>
  <g transform="translate(180,360)">
    <path d="M0 20 Q0 0 20 0 h200 q20 0 20 20 v80 q0 20-20 20 h-200 q-20 0-20-20 z" fill="#4ade80" stroke="#4ade80" stroke-width="2" opacity="0.15"/>
    <text x="120" y="70" font-family="Inter,sans-serif" font-size="28" font-weight="800" fill="#4ade80" text-anchor="middle" opacity="0.7">NO LEAK</text>
  </g>
  <g opacity="0.4">
    <path d="M420 200 Q450 230 440 280" stroke="#4ade80" stroke-width="3" fill="none" stroke-linecap="round"/>
    <path d="M430 270 L440 285 L452 272" stroke="#4ade80" stroke-width="3" fill="none" stroke-linecap="round"/>
  </g>
  <text x="300" y="540" font-family="Inter,sans-serif" font-size="24" font-weight="700" fill="#4ade80" text-anchor="middle" opacity="0.6">Kín nước tuyệt đối</text>
</svg>
