<svg xmlns="http://www.w3.org/2000/svg" width="600" height="600" viewBox="0 0 600 600">
  <rect width="600" height="600" rx="24" fill="#0f1f17"/>
  <path d="M250 100 h100 v35 h15 v55 l28 38 v270 a55 55 0 0 1-55 55 h-76 a55 55 0 0 1-55-55 V208 l28-38 v-55 h15 z" fill="#16a34a" opacity="0.7"/>
  <rect x="250" y="100" width="100" height="18" rx="4" fill="#15803d"/>
  <g transform="translate(300,300)" opacity="0.6">
    <path d="M0 -90 L78 -45 L78 45 L0 90 L-78 45 L-78 -45 Z" fill="none" stroke="#4ade80" stroke-width="4"/>
    <path d="M0 -50 L0 50 M-43 -25 L43 25 M-43 25 L43 -25" stroke="#4ade80" stroke-width="3" stroke-linecap="round"/>
    <text y="6" font-family="Inter,sans-serif" font-size="32" font-weight="900" fill="#4ade80" text-anchor="middle">∞</text>
  </g>
  <text x="300" y="540" font-family="Inter,sans-serif" font-size="24" font-weight="700" fill="#4ade80" text-anchor="middle" opacity="0.6">Bền vượt trội</text>
</svg>
