<svg xmlns="http://www.w3.org/2000/svg" width="600" height="600" viewBox="0 0 600 600">
  <rect width="600" height="600" rx="24" fill="#0f1f17"/>
  <path d="M250 120 h100 v35 h15 v55 l28 38 v250 a55 55 0 0 1-55 55 h-76 a55 55 0 0 1-55-55 V248 l28-38 v-55 h15 z" fill="#16a34a" opacity="0.6"/>
  <rect x="250" y="120" width="100" height="18" rx="4" fill="#15803d"/>
  <g transform="translate(380,160)">
    <circle cx="0" cy="0" r="80" fill="#4ade80" opacity="0.15"/>
    <circle cx="0" cy="0" r="60" fill="#4ade80" opacity="0.25"/>
    <circle cx="0" cy="0" r="48" fill="#4ade80"/>
    <text y="8" font-family="Inter,sans-serif" font-size="20" font-weight="900" fill="#0f1f17" text-anchor="middle">SALE</text>
  </g>
  <g transform="translate(140,200)" opacity="0.4">
    <path d="M0 0 L15 -30 L30 0 L25 5 L20 -5 L20 30 L10 30 L10 -5 L5 5 Z" fill="#4ade80"/>
    <path d="M40 10 L55 -20 L70 10 L65 15 L60 5 L60 40 L50 40 L50 5 L45 15 Z" fill="#4ade80" opacity="0.6"/>
  </g>
  <text x="300" y="540" font-family="Inter,sans-serif" font-size="24" font-weight="700" fill="#4ade80" text-anchor="middle" opacity="0.6">Mua ngay hôm nay</text>
</svg>
