<svg viewBox="0 0 1440 810" xmlns="http://www.w3.org/2000/svg">
  <rect width="1440" height="810" fill="#0d0d0d"/>
  <rect x="0" y="0" width="1440" height="60" fill="#1a1a1a"/>
  <circle cx="30" cy="30" r="8" fill="#ff5f57"/><circle cx="55" cy="30" r="8" fill="#febc2e"/><circle cx="80" cy="30" r="8" fill="#28c840"/>
  <text x="100" y="38" font-size="16" fill="rgba(255,255,255,0.5)" font-family="monospace">linear.app</text>
  <rect x="80" y="120" width="400" height="40" rx="8" fill="rgba(255,255,255,0.9)"/>
  <rect x="80" y="200" width="1280" height="2" fill="rgba(255,255,255,0.1)"/>
  <rect x="80" y="230" width="600" height="20" rx="4" fill="rgba(255,255,255,0.3)"/>
  <rect x="80" y="270" width="500" height="20" rx="4" fill="rgba(255,255,255,0.2)"/>
  <rect x="80" y="310" width="700" height="20" rx="4" fill="rgba(255,255,255,0.15)"/>
  <rect x="80" y="360" width="550" height="20" rx="4" fill="rgba(255,255,255,0.2)"/>
  <rect x="80" y="400" width="650" height="20" rx="4" fill="rgba(255,255,255,0.1)"/>
  <rect x="700" y="230" width="660" height="400" rx="12" fill="rgba(255,255,255,0.05)"/>
  <rect x="730" y="260" width="200" height="120" rx="8" fill="rgba(95,99,244,0.3)"/>
  <rect x="950" y="260" width="200" height="120" rx="8" fill="rgba(46,204,113,0.2)"/>
</svg>
